<?xml version="1.0" encoding="utf-8"?>
<!-- Generator: Adobe Illustrator 25.2.3, SVG Export Plug-In . SVG Version: 6.00 Build 0)  -->
<svg version="1.1" id="Ebene_1" xmlns="http://www.w3.org/2000/svg" xmlns:xlink="http://www.w3.org/1999/xlink" x="0px" y="0px"
	 viewBox="0 0 36 36" style="enable-background:new 0 0 36 36;" xml:space="preserve">
<style type="text/css">
	.st0{fill:#E4609B;}
	.st1{fill:#101015;}
	.st2{fill:#29A7DD;}
	.st3{fill:#484345;}
	.st4{fill:#FEFEFE;}
	.st5{fill:#1887B3;}
	.st6{fill:#1D6A8A;}
</style>
<g>
	<path class="st0" d="M19.1,33.2c-0.2,0-0.4,0-0.6,0c-1.1,0-1.2,0-1.2-1.1c0-0.4-0.1-0.6-0.5-0.6c-4.5-0.8-7.3-3.4-8.7-7.7
		c-0.1-0.4-0.3-0.4-0.6-0.4c-0.5,0-1,0-1.5,0c-0.5,0-0.7-0.2-0.7-0.7c0-0.7,0-1.4,0-2.1c0-0.5,0.2-0.6,0.6-0.6
		c0.5,0,1.2,0.3,1.6-0.1c0.4-0.4,0.1-1.1,0.1-1.7c0-4.7,0-9.3,0-14c0-1.4,0-1.4,1.4-1.4c0.8,0,1.7,0,2.5,0.2c1.8,0.6,3,2.1,3.1,4.1
		c0,1,0,2,0,2.9c0,0.2-0.2,0.6,0.3,0.6c0.3,0,0.9,0,0.9-0.6c0-0.4,0-0.8,0-1.1c0-0.1,0-0.2,0-0.4c0-0.9,0.7-0.7,1.1-0.6
		c0.6,0.1,1.5-0.5,1.7,0.6c0.1,0.5-0.2,1.1,0.1,1.4c0.3,0.3,0.9,0.2,1.4,0.3c4.4,0.9,7.3,3.5,8.6,7.8c0.2,0.5,0.5,0.4,0.8,0.5
		c1.1,0,1.1,0,1.1,1.1c0,0.3,0,0.6,0,0.9c0,0.6-0.2,0.8-0.8,0.7c-0.6-0.1-0.7,0.2-0.8,0.7c-0.5,4.8-3.3,7.9-7.8,9.4
		c-0.3,0.1-0.4,0.2-0.5,0.5C20.7,33.2,20.7,33.2,19.1,33.2z M14.9,11.2c-0.1,0-0.3-0.1-0.2,0.1c0,0-0.1,0-0.1,0c-0.2,0-0.3,0-0.5,0
		c0-1.4,0-2.9,0-4.3c0-1.7-1.1-3.1-2.8-3.6c-0.8-0.2-1.6-0.1-2.4-0.2C8.3,3.2,8.1,3.4,8.1,4.1c0,4.9,0,9.9,0,14.8
		c0,1.5,0,1.5-1.5,1.5c-0.2,0-0.5-0.1-0.7,0.1l0,0c-0.3-0.1-0.2,0.2-0.2,0.3c0,0.6,0,1.3,0,1.9c0,0.1,0,0.1,0.1,0.1
		c0.5,0,1,0.1,1.5,0c0.7-0.1,1,0.1,1.2,0.9c1.3,4.2,4.2,6.7,8.6,7.4c0.3,0,0.6-0.1,0.6,0.4c0.1,1.3,0.1,1.3,1.4,1.3
		c0.2,0,0.4,0,0.6,0c0.4,0,0.6-0.1,0.5-0.5c0-0.2,0-0.4,0-0.6c-0.1-0.5,0.1-0.7,0.7-0.8c4.3-1.1,7.5-5,7.6-9.3c0-0.7,0.2-1,0.9-0.9
		c0.2,0,0.6,0.1,0.6-0.2c0.1-0.5,0.1-1,0-1.4c-0.1-0.3-0.6-0.1-0.9-0.1c-0.4,0-0.7,0.1-0.9-0.5c-1.2-4.4-4.1-7.1-8.6-7.9
		c-0.1,0-0.2,0-0.3,0c-0.2,0-0.4-0.1-0.6,0c-0.7,0.1-0.8-0.2-0.7-0.8c0-1.4,0-1.4-1.4-1.4c-0.4,0-0.6,0.1-0.6,0.6
		c0,0.6,0.2,1.3-0.1,1.9C15.7,10.9,15.2,10.9,14.9,11.2L14.9,11.2z"/>
	<path class="st1" d="M19.8,10.5c4.5,0.8,7.4,3.5,8.6,7.9c0.2,0.6,0.5,0.4,0.9,0.5c0.3,0,0.8-0.2,0.9,0.1c0.1,0.4,0.1,1,0,1.4
		c0,0.3-0.4,0.2-0.6,0.2c-0.7-0.1-0.9,0.2-0.9,0.9c-0.1,4.3-3.4,8.2-7.6,9.3c-0.5,0.1-0.7,0.3-0.7,0.8c0,0.2,0,0.4,0,0.6
		c0.1,0.4-0.1,0.6-0.5,0.5c-0.2,0-0.4,0-0.6,0c-1.3,0-1.3,0-1.4-1.3c0-0.5-0.4-0.4-0.6-0.4c-4.4-0.7-7.3-3.2-8.6-7.4
		c-0.2-0.7-0.5-0.9-1.2-0.9c-0.5,0.1-1,0-1.5,0c0,0-0.1-0.1-0.1-0.1c0-0.6,0-1.3,0-1.9c0-0.1-0.1-0.4,0.2-0.3c0,0.1,0.1,0.1,0.1,0.2
		c0,1.4,0,1.4,1.4,1.4c0.2,0,0.3,0,0.5,0c0.6-0.1,0.7,0.2,0.8,0.7c0.8,3.9,4.1,6.9,8,7.5c0.6,0.1,0.9,0,0.7-0.7c0-1.2,0-2.4,0-3.6
		c0-0.4-0.1-0.5-0.5-0.6c-2.2-0.4-3.8-2.1-4.1-4.1c0-0.2,0.1-0.3-0.1-0.4c-0.2-0.3-0.4-0.2-0.6-0.2c-1.3,0-2.7,0-4,0
		c-0.7-0.2-1.5,0-2.2-0.1c0.2-0.3,0.5-0.1,0.7-0.1c1.5,0,1.5,0,1.5-1.5c0-4.9,0-9.9,0-14.8c0-0.6,0.1-0.9,0.8-0.8
		c0.8,0.1,1.6-0.1,2.4,0.2C13,3.9,14.1,5.3,14.1,7c0,1.4,0,2.9,0,4.3c0,0.1,0,0.2,0,0.3c-0.4,0.3-0.6,0.2-0.6-0.3c0-1.4,0-2.8,0-4.2
		c0-1.9-1.1-3.2-3-3.5c-0.5-0.1-1,0-1.4-0.1C8.6,3.4,8.5,3.6,8.5,4.1c0,5.1,0,10.2,0,15.3c0,0.2-0.2,0.4,0.2,0.5c0.1,0,0.3,0,0.4,0
		c1.2,0,2.5,0,3.7,0c0-0.1,0.1-0.2,0.1-0.3c0.5-2.4,1.8-3.9,4.3-4.4c0.4-0.1,0.4-0.3,0.4-0.6c0-1.8,0-3.6,0-5.4
		c0-0.6-0.2-0.7-0.7-0.6c-0.3,0-0.2,0.3-0.2,0.4c0,0.5,0,1,0,1.4c0,0.4-0.1,0.5-0.5,0.5c0,0,0-0.1,0-0.1c0.3-0.6,0.1-1.3,0.1-1.9
		c0-0.4,0.1-0.6,0.6-0.6c1.4,0,1.5,0,1.4,1.4c0,0.6,0.1,0.9,0.7,0.8c0.2,0,0.4,0,0.6,0c-0.1,0-0.2,0.1-0.3,0.1
		c-0.3,0.2-0.9-0.4-1,0.4c0,1.2,0,2.3,0,3.5c0,0.5,0.2,0.6,0.6,0.7c2.3,0.4,3.9,2,4.3,4.3c0.1,0.4,0.1,0.5,0.5,0.5
		c1.8,0,3.7,0,5.5,0c0.3,0,0.5,0,0.5-0.4c0-0.4-0.1-0.4-0.5-0.4c-0.4,0-0.8,0-1.1,0c-0.5-4.2-3.7-7.4-8.2-8.3
		C19.8,10.7,19.8,10.6,19.8,10.5z M19.8,21.1c-0.1,0-0.2,0.1-0.2,0.2c-0.9,0.8-1.8,0.8-2.4,0c0.4-0.1,0.9,0.1,1.2-0.3
		c0.1-0.1,0.2-0.2,0.1-0.3c-0.1-0.1-0.2,0-0.3,0.1c-0.5,0.1-0.9-0.1-0.9-0.6c0-0.4,0.4-0.7,0.6-0.6c0.6,0.3,0.9-0.1,1.2-0.3
		c0.7-0.5,1.4-0.9,2.1-1.4c0.4-0.2,0.4-0.4,0.1-0.8c-1.3-1.5-3.4-2-5.3-1.2c-1.9,0.8-3,2.7-2.8,4.8c0.2,1.8,1.6,3.5,3.4,3.9
		c0.1,0.1,0.3,0.2,0.4,0.1c1.2,0.2,2.3,0,3.3-0.7c0.2-0.1,0.4-0.2,0.6-0.6c-0.3,0.2-0.5,0.4-0.7,0.5c-0.5,0.2-1,0.4-1.6,0.5
		c-0.4,0-0.8,0-1.2,0c-1-0.2-1.9-0.7-2.5-1.6c0,0,0.1-0.1,0.1-0.1c0.6,0.5,1.1,0.9,1.9,1c0.1,0.1,0.3,0.1,0.5,0.1c0.1,0,0.3,0,0.4,0
		c0.2,0,0.3,0,0.5-0.1c1.1-0.2,1.8-0.8,2.4-1.7c0.1-0.1,0.2-0.3,0.1-0.3c-0.2-0.1-0.2,0.1-0.3,0.3c-0.5,0.6-1.2,1.1-2,1.3
		c-0.3,0-0.6,0-0.9,0c-0.8-0.2-1.4-0.5-1.9-1.2c0,0,0.1-0.1,0.1-0.1c1.3,1.1,2.6,0.9,3.5-0.4C19.8,21.3,19.8,21.2,19.8,21.1
		C19.8,21,19.8,21,19.8,21.1C19.9,21,19.8,21,19.8,21.1C19.8,21,19.8,21,19.8,21.1z M19,32c0.6,0.2,0.9,0,0.8-0.7c0-0.2,0-0.4,0-0.6
		c0-0.3,0.1-0.5,0.5-0.6c4.3-0.9,7.4-4.3,7.9-8.7c0.1-0.7-0.2-0.9-0.8-0.8c-1.2,0-2.4,0-3.7,0c-0.3,0-0.5,0.1-0.5,0.4
		c-0.4,2.4-2.1,4-4.4,4.3c-0.4,0.1-0.4,0.2-0.4,0.6c0,1.8,0,3.6,0,5.4C18.2,31.9,18.4,32.1,19,32z M21.5,23.3
		c0.2-0.4,0.5-0.5,0.4-0.8C21.7,22.7,21.5,22.8,21.5,23.3z"/>
	<path class="st2" d="M16.1,10.9c0.4,0,0.5-0.1,0.5-0.5c0-0.5,0-1,0-1.4c0-0.2-0.1-0.4,0.2-0.4c0,0.6,0,1.3,0,1.9
		c0,0.5-0.1,0.6-0.6,0.7c-1.1,0.2-2.1,0.6-3,1.1c-0.5,0.3-0.5,0.1-0.5-0.3c0-1.6-0.1-3.3,0-4.9c0.1-2-1.3-3.3-3.3-3.3
		c-0.6,0-0.8,0.2-0.8,0.8c0,5.1,0,10.2,0,15.3c-0.3-0.1-0.2-0.4-0.2-0.5c0-5.1,0-10.2,0-15.3c0-0.5,0.1-0.7,0.6-0.6
		c0.5,0,1,0,1.4,0.1c1.9,0.3,3,1.6,3,3.5c0,1.4,0,2.8,0,4.2c0,0.6,0.1,0.6,0.6,0.3c0.2-0.1,0.4-0.1,0.5-0.3c0,0,0.1,0,0.1,0
		c0.1,0,0.2,0,0.2-0.1c0,0,0,0,0,0C15.3,11.2,15.7,11,16.1,10.9z"/>
	<path class="st3" d="M16.1,10.9c-0.4,0.2-0.7,0.3-1.2,0.3c0.3-0.3,0.7-0.3,1.1-0.4C16.1,10.8,16.1,10.8,16.1,10.9z"/>
	<path class="st3" d="M19.8,10.5c0,0.1,0,0.1,0,0.2c-0.2,0-0.4,0-0.6-0.1c0.1,0,0.2-0.1,0.3-0.1C19.6,10.5,19.7,10.5,19.8,10.5z"/>
	<path class="st3" d="M14.6,11.3c-0.1,0.2-0.3,0.2-0.5,0.3c0-0.1,0-0.2,0-0.3C14.3,11.3,14.4,11.3,14.6,11.3z"/>
	<path class="st3" d="M5.8,22.6c0,0,0.1,0.1,0.1,0.1C5.8,22.8,5.8,22.7,5.8,22.6z"/>
	<path class="st3" d="M14.9,11.2c0,0.1-0.1,0.1-0.2,0.1C14.7,11.1,14.8,11.2,14.9,11.2z"/>
	<path class="st4" d="M8.6,19.9c0-5.1,0-10.2,0-15.3c0-0.6,0.1-0.8,0.8-0.8c2,0,3.4,1.2,3.3,3.3c-0.1,1.6,0,3.3,0,4.9
		c0,0.5,0.1,0.6,0.5,0.3c0.9-0.6,1.9-1,3-1.1c0.4-0.1,0.6-0.3,0.6-0.7c0-0.6,0-1.3,0-1.9c0.5-0.1,0.8,0,0.7,0.6c0,1.8,0,3.6,0,5.4
		c0,0.3,0,0.5-0.4,0.6c-2.4,0.5-3.8,2-4.3,4.4c0,0.1-0.1,0.2-0.1,0.3c-1.2-0.1-2.5-0.1-3.7,0C8.9,19.9,8.8,19.9,8.6,19.9z"/>
	<path class="st4" d="M19,32c-0.6,0.2-0.8-0.1-0.7-0.7c0-1.8,0-3.6,0-5.4c0-0.3,0-0.5,0.4-0.6c2.4-0.3,4-2,4.4-4.3
		c0.1-0.4,0.2-0.4,0.5-0.4c1.2,0,2.4,0,3.7,0c0,3.7-2.6,7.2-6.2,8.5c-0.7,0.2-1.7,0.1-2,0.7C18.7,30.4,19,31.2,19,32z"/>
	<path class="st4" d="M28,19.1c0.4,0,0.8,0,1.1,0c0.3,0,0.5,0.1,0.5,0.4c0,0.4-0.2,0.4-0.5,0.4c-1.8,0-3.7,0-5.5,0
		c-0.4,0-0.4-0.1-0.5-0.5c-0.4-2.3-2-3.8-4.3-4.3c-0.4-0.1-0.6-0.2-0.6-0.7c0-1.2,0-2.3,0-3.5c4.3,0.1,8,3.2,8.8,7.4
		C27.2,19,27.4,19.2,28,19.1z"/>
	<path class="st4" d="M8.2,20.6c1.3,0,2.7,0,4,0c0.2,0,0.5-0.1,0.6,0.2c0,0.1,0.1,0.3,0.1,0.4c0.3,2,1.9,3.7,4.1,4.1
		c0.4,0.1,0.5,0.2,0.5,0.6c0,1.2,0,2.4,0,3.6c-3.7,0-7.4-2.9-8.4-6.6c-0.2-0.5,0-1.3-0.5-1.6c-0.4-0.2-1.1-0.1-1.7-0.1
		c-0.5,0-0.8-0.1-0.8-0.7C6.8,20.7,7.5,20.6,8.2,20.6z"/>
	<path class="st2" d="M18.8,23.1c0.8-0.1,1.5-0.6,2-1.3c0,0,0.1,0,0.1,0.1c-0.5,0.9-1.3,1.6-2.4,1.7c-0.2,0-0.3,0-0.5,0.1
		c-0.1,0-0.3,0-0.4,0c-0.1-0.1-0.3-0.1-0.5-0.1c-0.8-0.1-1.3-0.5-1.9-1c-0.1-0.1-0.2-0.2-0.2-0.2c-0.1-0.1-0.2-0.3-0.3-0.4
		c0,0-0.1-0.1-0.1-0.1c0,0.1,0,0.1,0,0.2c0.1,0.2,0.3,0.4,0.4,0.6c0,0.1,0.1,0.1,0.1,0.2c0.6,0.9,1.4,1.4,2.5,1.6
		c0.4,0.2,0.8,0.2,1.2,0c0.6-0.1,1.1-0.3,1.6-0.5c0,0,0.1,0.1,0.1,0.1c-1,0.7-2.1,0.9-3.3,0.7c-0.1-0.1-0.3-0.1-0.4-0.1
		c-1.8-0.4-3.3-2.1-3.4-3.9c-0.2-2.2,0.9-4,2.8-4.8c1.8-0.8,4-0.3,5.3,1.2c0.3,0.4,0.3,0.5-0.1,0.8c-0.7,0.4-1.4,0.9-2.1,1.4
		c-0.4,0.2-0.7,0.6-1.2,0.3c-0.3-0.1-0.6,0.2-0.6,0.6c0,0.6,0.4,0.7,0.9,0.6c0.1,0.1,0.1,0.1,0.2,0.2c-0.3,0.4-0.8,0.2-1.2,0.3
		c0.6,0.8,1.5,0.8,2.4,0c0,0,0.1,0.1,0.1,0.1c-0.9,1.4-2.2,1.5-3.5,0.4c-0.1-0.1-0.2-0.3-0.3-0.4c0-0.1-0.1-0.1-0.1-0.2
		c0,0-0.1-0.1-0.1-0.1c-0.1,0,0,0.1,0,0.1c0,0,0,0.1,0,0.1c0,0.2,0.1,0.4,0.3,0.5c0.4,0.7,1.1,1,1.9,1.2
		C18.2,23.3,18.5,23.3,18.8,23.1z M14.6,21.6C14.5,21.6,14.5,21.6,14.6,21.6c0,0.1,0,0.1,0,0.2c0,0,0.1,0,0,0
		C14.6,21.7,14.6,21.6,14.6,21.6z"/>
	<path class="st2" d="M19,32c0-0.7-0.2-1.6,0.1-2.2c0.3-0.6,1.3-0.4,2-0.7c3.6-1.3,6.2-4.8,6.2-8.5c0.7-0.2,0.9,0,0.8,0.8
		c-0.5,4.4-3.6,7.8-7.9,8.7c-0.4,0.1-0.5,0.2-0.5,0.6c0,0.2,0,0.4,0,0.6C19.9,31.9,19.6,32.1,19,32z"/>
	<path class="st2" d="M6.1,20.7c0,0.6,0.2,0.7,0.8,0.7c0.6,0,1.2-0.2,1.7,0.1C9,21.7,8.9,22.5,9,23c1.1,3.7,4.7,6.5,8.4,6.6
		c0.2,0.7-0.1,0.8-0.7,0.7c-3.9-0.6-7.2-3.6-8-7.5c-0.1-0.5-0.3-0.8-0.8-0.7c-0.2,0-0.3,0-0.5,0C6.1,22.1,6.1,22.1,6.1,20.7
		C6.1,20.7,6.1,20.7,6.1,20.7z"/>
	<path class="st2" d="M28,19.1c-0.5,0.1-0.8,0-0.9-0.6c-0.8-4.2-4.5-7.3-8.8-7.4c0.1-0.8,0.7-0.2,1-0.4c0.2,0.1,0.4,0.1,0.6,0.1
		C24.3,11.7,27.4,14.9,28,19.1z"/>
	<path class="st2" d="M9,19.9c1.2-0.1,2.5-0.1,3.7,0C11.5,19.9,10.2,19.9,9,19.9z"/>
	<path class="st3" d="M6.1,20.7C6.1,20.7,6.1,20.7,6.1,20.7C6,20.6,6,20.5,6,20.5c0,0,0,0,0,0c0.7,0.1,1.5-0.1,2.2,0.1
		C7.5,20.6,6.8,20.7,6.1,20.7z"/>
	<path class="st5" d="M18.8,24.4c-0.4,0.2-0.8,0.2-1.2,0C18,24.4,18.4,24.4,18.8,24.4z"/>
	<path class="st5" d="M20.5,24.1c0,0-0.1-0.1-0.1-0.1c0.2-0.1,0.4-0.2,0.7-0.5C20.9,23.9,20.7,24,20.5,24.1z"/>
	<path class="st5" d="M18.8,23.1c-0.3,0.2-0.6,0.2-0.9,0C18.2,23.1,18.5,23.1,18.8,23.1z"/>
	<path class="st6" d="M21.5,23.3c0-0.5,0.2-0.6,0.4-0.8C22,22.8,21.7,22.9,21.5,23.3z"/>
	<path class="st3" d="M15.9,21.4c0.1,0.1,0.2,0.3,0.3,0.4c0,0-0.1,0.1-0.1,0.1c-0.2-0.1-0.3-0.3-0.3-0.5
		C15.8,21.4,15.9,21.4,15.9,21.4z"/>
	<path class="st6" d="M20.8,21.9c0-0.2,0.1-0.3,0.3-0.3c0.1,0-0.1,0.2-0.1,0.3C20.9,21.9,20.8,21.9,20.8,21.9z"/>
	<path class="st5" d="M17.2,23.7c0.2,0,0.3,0,0.5,0.1C17.5,23.8,17.3,23.8,17.2,23.7z"/>
	<path class="st5" d="M18.1,23.8c0.1-0.1,0.3-0.1,0.5-0.1C18.4,23.8,18.2,23.8,18.1,23.8z"/>
	<path class="st5" d="M16.8,24.7c0.2,0,0.3,0,0.4,0.1C17.1,24.8,16.9,24.8,16.8,24.7z"/>
	<path class="st3" d="M12.9,21.2c0-0.1-0.1-0.3-0.1-0.4C13,20.9,13,21.1,12.9,21.2z"/>
	<path class="st6" d="M18.4,20.9c-0.1-0.1-0.1-0.1-0.2-0.2c0.1-0.1,0.1-0.2,0.3-0.1C18.6,20.8,18.5,20.9,18.4,20.9z"/>
	<path class="st6" d="M19.6,21.2c0-0.1,0-0.2,0.2-0.2l0,0c0.1,0.1,0,0.2-0.1,0.3C19.7,21.3,19.7,21.3,19.6,21.2z"/>
	<path class="st6" d="M19.8,21.1C19.8,21,19.8,21,19.8,21.1C19.8,21,19.9,21,19.8,21.1C19.8,21,19.8,21,19.8,21.1
		C19.8,21.1,19.8,21.1,19.8,21.1z"/>
	<path class="st3" d="M15.1,22.7c-0.1-0.2-0.3-0.4-0.4-0.6c0.1,0,0.1,0,0.2-0.1c0.1,0.1,0.2,0.3,0.3,0.4
		C15.1,22.5,15.1,22.6,15.1,22.7z"/>
	<path class="st6" d="M14.6,21.6c0,0,0,0.1,0,0.1c0,0,0,0,0,0C14.5,21.7,14.5,21.7,14.6,21.6C14.5,21.6,14.5,21.6,14.6,21.6z"/>
	<path class="st1" d="M15.1,22.7c0-0.1,0-0.1,0-0.2c0.1,0.1,0.2,0.2,0.2,0.2c0,0-0.1,0.1-0.1,0.1C15.1,22.8,15.1,22.7,15.1,22.7z"/>
	<path class="st6" d="M14.8,22c-0.1,0-0.1,0-0.2,0.1c0-0.1,0-0.1,0-0.2C14.7,22,14.8,22,14.8,22z"/>
	<path class="st6" d="M15.7,21.2c0,0-0.1-0.1,0-0.1C15.7,21.1,15.8,21.2,15.7,21.2C15.8,21.2,15.8,21.2,15.7,21.2z"/>
	<path class="st6" d="M15.9,21.4c0,0-0.1,0-0.1,0c0,0,0-0.1,0-0.1c0,0,0,0,0.1-0.1C15.8,21.2,15.9,21.3,15.9,21.4z"/>
</g>
</svg>
