<?xml version="1.0" encoding="utf-8"?>
<!-- Generator: Adobe Illustrator 25.2.2, SVG Export Plug-In . SVG Version: 6.00 Build 0)  -->
<svg version="1.1" id="Ebene_1" xmlns="http://www.w3.org/2000/svg" xmlns:xlink="http://www.w3.org/1999/xlink" x="0px" y="0px"
	 viewBox="0 0 841.9 198.4" style="enable-background:new 0 0 841.9 198.4;" xml:space="preserve">
<style type="text/css">
	.st0{fill:#FF6600;}
</style>
<g id="IYIsN7_1_">
	<g>
		<path class="st0" d="M40.6,172.7c-12.7,0-24.9,0-37.4,0c0-0.9-0.1-1.7-0.1-2.5c0-47.3,0-94.5-0.1-141.8c0-2.2,0.7-2.7,2.8-2.7
			c15,0.1,30,0.1,45.1,0c1.9,0,2.8,0.7,3.6,2.4c10.9,26.1,21.8,52.3,32.7,78.4c0.3,0.7,0.7,1.4,1.2,2.5c0.6-1.2,1-2,1.3-2.8
			c11.4-26,22.8-52,34.1-78.1c0.8-1.9,1.7-2.5,3.8-2.5c13.6,0.1,27.2,0.1,40.8,0c2.2,0,2.9,0.5,2.9,2.8
			c-0.1,47.2-0.1,94.4-0.1,141.6c0,0.8-0.1,1.6-0.1,2.5c-12.3,0-24.5,0-37,0c0-28.1,0-56.2,0-84.3c-0.2-0.1-0.4-0.1-0.7-0.2
			c-0.4,0.9-0.9,1.7-1.3,2.6c-11.4,26.6-22.8,53.1-34.2,79.7c-0.7,1.6-1.5,2.4-3.4,2.3c-5.1-0.2-10.2-0.1-15.3,0
			c-1.8,0-2.6-0.6-3.3-2.2c-11-26-22.2-52.4-33.3-78.7c-0.5-1.1-1-2.2-2-3.2C40.6,116.5,40.6,144.5,40.6,172.7z"/>
		<path class="st0" d="M702.6,99.2c-0.1,16.9-3.6,32.9-13.1,47.2c-10.7,16.1-25.8,25.4-44.9,28.2c-15.4,2.3-30.5,1-45-5.2
			c-19.3-8.3-31.4-23.1-37.5-42.9c-4-12.9-4.9-26.1-3.2-39.6c1.6-13.3,5.8-25.6,13.7-36.4c9.9-13.6,23.3-21.9,39.7-25.5
			c15.7-3.4,31.3-3.2,46.4,2.5c20,7.6,32.6,22.3,39.4,42.2C701.3,79.3,702.7,89.1,702.6,99.2z M597.7,99c0,2.4-0.2,4.7,0,7.1
			c0.6,8,2.2,15.7,6.2,22.9c6.9,12.5,19.6,17.5,32.8,15.4c10.3-1.6,16.8-8.1,21.1-17.1c3.2-6.7,4.5-13.8,5-21.2
			c0.8-10,0.2-19.8-2.8-29.3c-2.8-8.9-7.6-16.4-16.4-20.5c-12.7-6-33.4-2.5-41.5,16.6C598.6,81.2,597.6,90,597.7,99z"/>
		<path class="st0" d="M392.2,36.6c-4.7,8.1-9.3,16-14,23.8c-0.2,0.4-1.5,0.6-2.1,0.4c-7.2-2-14.4-4.4-21.7-6
			c-8.1-1.8-16.3-1.6-24.3,0.6c-10.5,2.8-18.4,9-22.7,18.9c-7.2,16.5-7.2,33.3,0.1,49.8c5.4,12.2,15.6,18.5,28.5,20.7
			c8.1,1.4,16.2,0.7,24.3,0c1.4-0.1,1.9-0.8,1.9-2.2c0-7.5,0-15.1,0-22.6c0-1.6-0.6-2.1-2.1-2c-4.7,0.1-9.5,0-14.2,0
			c-1.6,0-2.2-0.5-2.2-2.1c0.1-8.4,0.1-16.8,0-25.3c0-1.6,0.4-2.2,2.1-2.2c15.2,0.1,30.5,0,45.7,0c3.3,0,5.3,2,5.6,5.3
			c0.1,1,0.1,2.1,0.1,3.1c0,23.7,0,47.4,0.1,71.1c0,2.4-0.8,3.3-2.9,3.5c-10.6,1.2-21.2,2.7-31.9,3.5c-7.8,0.6-15.7,0.7-23.5,0.4
			c-14-0.6-27.7-3.1-40.4-9.6c-15-7.6-25.3-19.3-30.5-35.2c-6.5-19.9-7-40.1-0.3-60c7.9-23.6,24.4-38.6,48.5-44.6
			c24.2-6.1,47.8-3.6,70.3,7.2c1.6,0.8,3.1,1.7,4.6,2.7C391.5,36,391.7,36.3,392.2,36.6z"/>
		<path class="st0" d="M549.2,172.8c-1,0-1.7,0-2.4,0c-11.5,0-22.9,0-34.4,0c-1.9,0-2.7-0.6-3.4-2.3c-5.7-13.3-11.4-26.5-17.2-39.8
			c-0.1-0.2-0.2-0.4-0.3-0.6c-2.8-7.6-8.1-11.3-16.4-10.5c-3.2,0.3-6.5,0.1-9.8,0c-1.9-0.1-2.4,0.7-2.3,2.4c0.1,16,0,31.9,0.1,47.9
			c0,2.2-0.4,2.9-2.8,2.9c-10.5-0.1-21-0.1-31.5,0c-2,0-2.5-0.6-2.5-2.5c0-45.9,0-91.9,0-137.8c0-4.4,2.3-6.7,6.7-6.7
			c20.2,0,40.4-0.1,60.6,0.2c8.4,0.1,16.6,1.6,24.3,5.3c10.2,4.9,15.8,13.3,17.9,24.1c1.9,9.8,1.9,19.5-1.9,28.9
			c-4.1,9.9-10.7,17-21.4,19.8c-0.3,0.1-0.5,0.2-0.8,0.4c-0.1,0.1-0.2,0.2-0.3,0.4c11.6,6,17.6,16.4,22.2,27.9
			c4.9,12.5,9.9,24.9,14.9,37.4C548.7,171,548.9,171.8,549.2,172.8z M463.1,91.4c8.4-0.3,16.6,0,24.6-1c6.8-0.8,11.3-5.4,13.3-12.1
			c0.5-1.8,0.8-3.6,0.9-5.4c0.5-10.2-2.9-18-14.9-18.8c-7.4-0.5-14.8-0.3-22.1-0.5c-1.7,0-1.7,0.9-1.7,2.1c0,7.6,0,15.2,0,22.8
			C463.1,82.6,463.1,86.7,463.1,91.4z"/>
		<path class="st0" d="M717.4,159.7c5.6-9.8,11-19.5,16.5-29.2c4.5,2.2,8.7,4.5,13.1,6.4c10.8,4.7,21.9,8.1,33.8,7.6
			c3.9-0.2,7.9-1,11.7-2.1c4.5-1.4,7.4-4.6,7.8-9.5c0.4-4.6-1.9-8.1-5.8-10.1c-4.6-2.3-9.4-4.2-14.3-5.8c-10-3.4-20.3-6.3-30.3-9.9
			c-4.1-1.5-8-3.9-11.6-6.4c-10-7-15-16.7-15.2-28.9c-0.3-16.9,7-29.7,21.2-38.6c6.1-3.8,12.8-6.4,19.9-7.9
			c19.9-4.3,39.3-3.2,58.1,5.1c5.3,2.3,10.2,5.4,14.7,9.5c-6.8,7.7-13.4,15.3-20.1,22.9c-3.7-1.9-7.2-3.8-10.8-5.5
			c-10.3-4.8-21.1-6.8-32.3-3.6c-2.8,0.8-5.6,2.2-7.7,4.1c-5,4.2-4.9,11.2,0.5,15c3.2,2.3,6.8,4.1,10.6,5.4
			c9.9,3.5,19.9,6.4,29.8,9.8c7.6,2.6,14.7,6.1,20.8,11.5c9.1,8,12,18.2,11,29.9c-2.1,23-18.6,38.5-41.6,43.8
			c-18.2,4.2-36.2,2.7-54.1-2.4c-8.1-2.3-15.8-5.3-23.1-9.5C719.1,160.9,718.3,160.3,717.4,159.7z"/>
		<path class="st0" d="M200.7,99.3c0-23.5,0-47,0-70.5c0-3,0-3,3-3c9.2,0,18.5,0,27.7,0c4.7,0,6.8,2,6.8,6.7c0,46,0,92,0,138
			c0,1.7-0.4,2.3-2.3,2.3c-11-0.1-22-0.1-33.1,0c-2,0-2.3-0.7-2.3-2.5C200.7,146.7,200.7,123,200.7,99.3z"/>
	</g>
</g>
</svg>
